d696d9dc23a82c51c4761f5792e7fa37 *tests/data/fate/caf-pcm_s24-remux.caf
11520092 tests/data/fate/caf-pcm_s24-remux.caf
#tb 0: 1/192000
#media_type 0: audio
#codec_id 0: pcm_s24be
#sample_rate 0: 192000
#channel_layout 0: 3
#channel_layout_name 0: stereo
0,          0,          0,      682,     4092, 0x71f10ea0
0,        682,        682,      682,     4092, 0x51852317
0,       1364,       1364,      682,     4092, 0xc8e2693d
0,       2046,       2046,      682,     4092, 0x8df13008
0,       2728,       2728,      682,     4092, 0xc56bdf7f
0,       3410,       3410,      682,     4092, 0x4ac2c0f9
0,       4092,       4092,      682,     4092, 0x11a50650
0,       4774,       4774,      682,     4092, 0x0a3837f4
0,       5456,       5456,      682,     4092, 0xff0a3ce7
0,       6138,       6138,      682,     4092, 0x42d2c983
0,       6820,       6820,      682,     4092, 0x2adbf4ea
0,       7502,       7502,      682,     4092, 0x86d4f0a5
0,       8184,       8184,      682,     4092, 0x5f35d5f7
0,       8866,       8866,      682,     4092, 0xd3f27234
0,       9548,       9548,      682,     4092, 0xb3a97ff5
